<?xml version="1.0" encoding="utf-8"?>
<!-- Generator: Adobe Illustrator 16.0.0, SVG Export Plug-In . SVG Version: 6.00 Build 0)  -->
<!DOCTYPE svg PUBLIC "-//W3C//DTD SVG 1.1//EN" "http://www.w3.org/Graphics/SVG/1.1/DTD/svg11.dtd">
<svg version="1.1" id="Camada_1" xmlns="http://www.w3.org/2000/svg" xmlns:xlink="http://www.w3.org/1999/xlink" x="0px" y="0px"
	 width="24px" height="24px" viewBox="0 0 24 24" enable-background="new 0 0 24 24" xml:space="preserve">
<path fill="#FFFFFF" d="M4.87,19.165l1.007-3.681c-0.622-1.076-0.948-2.297-0.948-3.549c0.002-3.915,3.187-7.1,7.101-7.1
	c1.9,0,3.682,0.74,5.023,2.083c1.342,1.342,2.078,3.126,2.078,5.023c-0.002,3.915-3.188,7.101-7.101,7.101
	c-1.188-0.001-2.359-0.299-3.396-0.865L4.87,19.165z M8.808,16.893c1.001,0.594,1.956,0.949,3.219,0.949
	c3.252,0,5.903-2.646,5.905-5.901c0.002-3.261-2.637-5.905-5.899-5.906c-3.255,0-5.903,2.647-5.904,5.901
	c0,1.328,0.389,2.323,1.043,3.363l-0.597,2.18L8.808,16.893z M15.605,13.629c-0.043-0.072-0.162-0.117-0.34-0.207
	c-0.178-0.089-1.05-0.52-1.213-0.576c-0.162-0.06-0.279-0.09-0.398,0.088c-0.118,0.178-0.459,0.578-0.563,0.695
	c-0.104,0.118-0.208,0.135-0.385,0.045c-0.178-0.089-0.749-0.275-1.427-0.881c-0.527-0.471-0.884-1.052-0.987-1.229
	c-0.103-0.177-0.011-0.273,0.078-0.362c0.08-0.08,0.177-0.207,0.266-0.311c0.09-0.103,0.12-0.177,0.179-0.295
	c0.059-0.118,0.03-0.222-0.015-0.311c-0.045-0.088-0.399-0.962-0.547-1.317c-0.145-0.346-0.291-0.299-0.399-0.304L9.516,8.656
	c-0.118,0-0.311,0.044-0.473,0.222c-0.163,0.178-0.621,0.607-0.621,1.48s0.636,1.717,0.725,1.835c0.089,0.118,1.25,1.911,3.03,2.679
	c0.422,0.183,0.754,0.292,1.012,0.373c0.424,0.136,0.812,0.116,1.117,0.071c0.342-0.051,1.049-0.431,1.197-0.844
	C15.65,14.059,15.65,13.704,15.605,13.629z"/>
</svg>
