<?xml version="1.0" encoding="utf-8"?>
<!-- Generator: Adobe Illustrator 16.0.0, SVG Export Plug-In . SVG Version: 6.00 Build 0)  -->
<!DOCTYPE svg PUBLIC "-//W3C//DTD SVG 1.1//EN" "http://www.w3.org/Graphics/SVG/1.1/DTD/svg11.dtd">
<svg version="1.1" id="Camada_1" xmlns="http://www.w3.org/2000/svg" xmlns:xlink="http://www.w3.org/1999/xlink" x="0px" y="0px"
	 width="24px" height="24px" viewBox="0 0 24 24" enable-background="new 0 0 24 24" xml:space="preserve">
<g>
	<g transform="translate(600 600) scale(0.69 0.69) rotate(0) translate(-600 -600)">
		<title>icon-info</title>
		<desc>Created with love by @immaulana.</desc>
		<g>
			<path fill="#FFFFFF" d="M-252.141-241.974c-5.67,0-10.281-4.611-10.281-10.281c0-5.668,4.611-10.28,10.281-10.28
				c5.669,0,10.279,4.612,10.279,10.28C-241.862-246.585-246.472-241.974-252.141-241.974z M-252.141-242.868
				c5.174,0,9.387-4.211,9.387-9.386c0-5.174-4.213-9.387-9.387-9.387c-5.175,0-9.387,4.213-9.387,9.387
				C-261.528-247.079-257.316-242.868-252.141-242.868z M-252.588-254.937h0.895v8.046h-0.895V-254.937z M-252.588-258.065h0.895
				v1.34h-0.895V-258.065z"/>
		</g>
	</g>
</g>
</svg>
