<svg xmlns="http://www.w3.org/2000/svg" xmlns:xlink="http://www.w3.org/1999/xlink" width="1200" height="1200" viewBox="0 0 1200 1200"><g><g transform="translate(600 600) scale(0.69 0.69) rotate(0) translate(-600 -600)" style="fill:#cd311b"><svg fill="#cd311b" xmlns="http://www.w3.org/2000/svg" xmlns:xlink="http://www.w3.org/1999/xlink" version="1.1" x="0px" y="0px" viewBox="0 0 100 100" style="enable-background:new 0 0 100 100;" xml:space="preserve"><g><path d="M72,64.9c3.7-5.2,5.9-11.5,5.9-18.3c0-17.3-14.1-31.4-31.4-31.4S15.2,29.3,15.2,46.6s14.1,31.4,31.4,31.4   c6.8,0,13.2-2.2,18.3-5.9l11.4,11.4c1,1,2.3,1.5,3.5,1.5s2.6-0.5,3.5-1.5c2-2,2-5.1,0-7.1L72,64.9z M25.2,46.6   c0-11.8,9.6-21.4,21.4-21.4c11.8,0,21.4,9.6,21.4,21.4c0,11.8-9.6,21.4-21.4,21.4C34.8,67.9,25.2,58.3,25.2,46.6z"></path></g></svg></g></g></svg>