<svg xmlns="http://www.w3.org/2000/svg" xmlns:xlink="http://www.w3.org/1999/xlink" width="1200" height="1200" viewBox="0 0 1200 1200"><g><g transform="translate(600 600) scale(0.69 0.69) rotate(0) translate(-600 -600)" style="fill:#cd311b"><svg fill="#cd311b" xmlns="http://www.w3.org/2000/svg" xmlns:xlink="http://www.w3.org/1999/xlink" version="1.1" x="0px" y="0px" viewBox="0 0 100 100" style="enable-background:new 0 0 100 100;" xml:space="preserve"><path d="M83.9,16.1c-18.7-18.7-49.1-18.7-67.9,0c-18.7,18.7-18.7,49.1,0,67.9c18.7,18.7,49.1,18.7,67.9,0  C102.7,65.2,102.7,34.8,83.9,16.1z M55.2,73c0,2.8-2.2,5-5,5s-5-2.2-5-5v-3c0-2.8,2.2-5,5-5s5,2.2,5,5V73z M55.2,54c0,2.8-2.2,5-5,5  s-5-2.2-5-5V28c0-2.8,2.2-5,5-5s5,2.2,5,5V54z"></path></svg></g></g></svg>