<?xml version="1.0" encoding="utf-8"?>
<!-- Generator: Adobe Illustrator 16.0.0, SVG Export Plug-In . SVG Version: 6.00 Build 0)  -->
<!DOCTYPE svg PUBLIC "-//W3C//DTD SVG 1.1//EN" "http://www.w3.org/Graphics/SVG/1.1/DTD/svg11.dtd">
<svg version="1.1" xmlns="http://www.w3.org/2000/svg" xmlns:xlink="http://www.w3.org/1999/xlink" x="0px" y="0px" width="443px"
	 height="261px" viewBox="0 0 443 261" enable-background="new 0 0 443 261" xml:space="preserve">
<g id="Camada_3">
	<circle opacity="0.75" fill="#D03E1F" cx="216.063" cy="135.966" r="101.317"/>
</g>
<g id="astronaut">
	<path fill="#FFFFFF" d="M328.165,175.15l-6.136-6.133c-3.928-3.93-10.046-4.357-14.453-1.291l-4.007-4.01
		c0.604,0.08,1.009,0.135,1.03,0.135c0.436,0,0.863-0.143,1.212-0.408c0.422-0.324,0.698-0.797,0.771-1.324l4.978-36.477
		c0.149-1.094-0.615-2.104-1.711-2.254l-8.601-1.174c-5.503-0.752-10.634,2.613-12.288,7.719l-19.137-2.648
		c-1.375-0.186-2.824-0.242-3.824-0.174v-8.848c0-4.213-1.921-8.17-4.895-11.137c-2.967-2.973-7.062-4.611-11.274-4.611
		c-4.209,0-8.206,1.639-11.181,4.613c-2.973,2.977-4.65,6.932-4.65,11.135V129h-7.793l-7.936-7.965
		c0.578-2.363,0.894-4.842,0.894-7.385c0-17.057-13.878-30.941-30.936-30.941c-15.543,0-28.442,11.52-30.612,26.473l-14.249,14.25
		c-2.657,2.656-4.12,6.186-4.12,9.945c0,3.756,1.621,7.287,4.278,9.941L176,175.637v3.348c0,12.133,9.555,22.016,21.688,22.016
		h3.143l1.579,1.574c7.717,7.717,17.849,11.568,27.981,11.568s20.271-3.859,27.983-11.574l19.786-19.713l21.144,21.16
		c0.393,0.389,0.905,0.584,1.416,0.584c0.513,0,1.021-0.195,1.414-0.584l26.031-26.035
		C328.947,177.201,328.947,175.934,328.165,175.15z"/>
	<g>
		<path d="M206.768,108.166c0.231,0.722,0.422,1.465,0.565,2.208c0.182,0.957,1.022,1.625,1.963,1.625
			c0.125,0,0.252-0.012,0.379-0.035c1.085-0.208,1.794-1.258,1.588-2.342c-0.172-0.905-0.403-1.806-0.687-2.685
			c-0.34-1.051-1.467-1.629-2.519-1.291C207.003,105.987,206.428,107.112,206.768,108.166L206.768,108.166z M206.768,108.166"/>
		<path d="M186.379,92.725c-0.003,1.107,0.894,2.004,1.996,2.007c5.777,0.009,11.436,2.772,15.137,7.396
			c0.395,0.494,0.978,0.752,1.566,0.752c0.437,0,0.879-0.144,1.247-0.438c0.861-0.692,1.002-1.95,0.313-2.814
			c-4.451-5.558-11.276-8.889-18.255-8.9h-0.005C187.276,90.727,186.38,91.62,186.379,92.725L186.379,92.725z M186.379,92.725"/>
		<path d="M195.052,160.22h-8.991c-1.105,0-2.001,0.894-2.001,2.001c0,1.104,0.896,2.001,2.001,2.001h8.991
			c1.103,0,1.999-0.896,1.999-2.001C197.051,161.113,196.154,160.22,195.052,160.22L195.052,160.22z M195.052,160.22"/>
		<path d="M328.165,175.062l-6.136-6.134c-3.928-3.929-10.046-4.356-14.453-1.29l-4.007-4.011c0.604,0.08,1.009,0.135,1.03,0.135
			c0.436,0,0.863-0.142,1.212-0.407c0.422-0.324,0.698-0.797,0.771-1.325l4.978-36.476c0.149-1.094-0.615-2.104-1.711-2.255
			l-8.601-1.174c-5.503-0.752-10.634,2.614-12.288,7.72l-19.417-2.648c-1.375-0.187-2.748-0.242-4.104-0.175v-8.847
			c0-4.213-1.641-8.17-4.614-11.138c-2.967-2.973-6.921-4.611-11.134-4.611c-4.209,0-8.163,1.639-11.138,4.614
			c-2.973,2.976-4.61,6.931-4.606,11.135v10.685h-7.74l-7.936-7.938c0.578-2.364,0.894-4.83,0.894-7.372
			c0-17.058-13.878-30.936-30.936-30.936c-15.543,0-28.442,11.522-30.612,26.477l-14.249,14.251c-2.657,2.655-4.12,6.187-4.12,9.945
			c0,3.757,1.463,7.289,4.12,9.943l32.315,32.317v3.349c0,12.133,9.871,22.004,22.004,22.004h3.143l1.579,1.579
			c7.717,7.717,17.849,11.572,27.981,11.572s20.271-3.858,27.983-11.572l19.786-19.714l21.144,21.161
			c0.393,0.39,0.905,0.585,1.416,0.585c0.513,0,1.021-0.195,1.414-0.585l26.031-26.035
			C328.947,177.111,328.947,175.845,328.165,175.062L328.165,175.062z M280.161,179.105v-15.147c3.142-0.425,6.172-1.839,8.58-4.249
			c0.896-0.895,1.659-1.887,2.296-2.956l8.648,8.651l-16.611,16.611L280.161,179.105z M256.865,159.515l-8.711-8.709l0.58-4.236
			c0.001-0.021,0.004-0.038,0.007-0.057c1.168,0.574,2.411,0.993,3.716,1.251c0.975,0.19,1.953,0.286,2.926,0.286
			c2.334,0,4.625-0.559,6.723-1.619l3.616,4.756c-1.104,0.761-2.153,1.622-3.119,2.593L256.865,159.515z M266.165,131
			c0.261,1.378,0.255,2.774-0.019,4.162c-0.566,2.886-2.222,5.373-4.662,7.012c-2.44,1.64-5.373,2.231-8.256,1.663
			c-1.237-0.243-2.396-0.686-3.459-1.31c1.187-3.095,3.208-5.807,5.908-7.862C258.743,132.335,262.389,131.077,266.165,131
			L266.165,131z M278.16,147.333c-3.121,0-6.14,0.653-8.913,1.882l-3.834-5.044c2.396-2.157,4.028-5.019,4.661-8.236
			c0.3-1.532,0.355-3.074,0.183-4.602l11.066,1.509l-1.979,14.525C278.951,147.346,278.558,147.333,278.16,147.333L278.16,147.333z
			 M278.16,151.334c3.506,0,6.854,0.999,9.729,2.855c-0.518,0.989-1.177,1.89-1.977,2.69c-4.291,4.291-11.27,4.291-15.561,0
			c-0.796-0.795-1.451-1.688-1.96-2.663C271.274,152.344,274.64,151.334,278.16,151.334L278.16,151.334z M302.89,159.506
			l-3.165-0.431l4.44-32.512l3.16,0.431L302.89,159.506z M290.228,134.055c1.101,0.145,2.104-0.614,2.253-1.712
			c0.523-3.819,3.925-6.543,7.716-6.296l-4.11,30.096l-2.366-2.363c-2.915-2.913-6.502-4.907-10.412-5.84l1.981-14.559
			L290.228,134.055z M253.258,131.479c-2.582,1.962-4.651,4.415-6.127,7.197l-9.181-9.182c0,0,0.005-11.631,0.011-11.787h23.467
			c0.004,0.156,0.012,9.889,0.012,9.889C258.509,128.297,255.729,129.601,253.258,131.479L253.258,131.479z M249.691,106.43
			c3.145,0,6.091,1.218,8.304,3.438c1.119,1.114,1.983,2.419,2.568,3.837h-21.738c0.581-1.418,1.445-2.721,2.559-3.837
			C243.604,107.65,246.553,106.43,249.691,106.43L249.691,106.43z M235.657,132.859c0,0,9.744,9.726,9.843,9.795
			c-0.327,1.093-0.574,2.221-0.73,3.371l-0.169,1.225l-14.391-14.391H235.657z M254.035,162.345l-6.158,6.159L212.31,132.94
			c1.881-2.33,3.429-4.938,4.574-7.748L254.035,162.345z M215.164,113.549c0,0.931-0.046,1.851-0.139,2.759
			c-6.562,6.377-15.427,9.073-23.069,7.093c-0.147-2.51-1.183-4.853-2.976-6.642c-1.937-1.938-4.51-3.005-7.248-3.005
			c-0.439,0-0.872,0.041-1.299,0.093c-3.769-8.171-1.292-18.826,6.307-26.422c0.28-0.28,0.554-0.542,0.827-0.794
			c0.22-0.004,0.439-0.018,0.665-0.018C203.082,86.613,215.164,98.695,215.164,113.549L215.164,113.549z M181.732,117.759
			c1.671,0,3.241,0.647,4.421,1.827c1.18,1.183,1.829,2.753,1.829,4.421c0,1.672-0.649,3.242-1.829,4.422s-2.75,1.83-4.421,1.83
			c-1.669,0-3.238-0.65-4.421-1.83c-1.181-1.18-1.829-2.75-1.829-4.422c0-1.668,0.648-3.238,1.829-4.421
			C178.494,118.406,180.063,117.759,181.732,117.759L181.732,117.759z M181.313,87.518c-6.592,8.355-8.445,19.028-4.694,27.613
			c-0.771,0.445-1.49,0.982-2.135,1.628c-1.938,1.937-3.005,4.51-3.005,7.248c0,2.741,1.067,5.314,3.005,7.249
			c1.938,1.938,4.511,3.005,7.249,3.005c2.741,0,5.312-1.067,7.248-3.002c1.112-1.11,1.923-2.435,2.427-3.873
			c1.836,0.436,3.724,0.652,5.635,0.652c5.651,0,11.462-1.88,16.533-5.378c-3.742,10.383-13.69,17.825-25.343,17.825
			c-14.854,0-26.936-12.083-26.936-26.937C161.297,101.087,169.804,90.581,181.313,87.518L181.313,87.518z M175.684,150.138
			l-26.727-26.727l8.376-8.375c0.566,11.956,7.957,22.148,18.351,26.779V150.138z M154.4,148.606l7.045-7.048l3.155,3.157
			l-7.044,7.047L154.4,148.606z M143.248,133.286c0-2.654,1.026-5.15,2.883-7.041l12.487,12.485l-7.045,7.047l-5.377-5.376
			C144.297,138.502,143.248,135.972,143.248,133.286L143.248,133.286z M160.386,154.59l7.045-7.043l8.253,8.249v14.092
			L160.386,154.59z M179.96,182.014c3.861-1.764,8.436-0.99,11.506,2.081c3.24,3.241,3.887,8.3,1.722,12.232
			C186.418,194.579,181.183,188.978,179.96,182.014L179.96,182.014z M197.361,196.889c1.881-4.43,1.4-9.507-1.325-13.512
			l9.973-9.973h11.854c0.156,0,0.313,0.005,0.469,0.012v23.47C218.176,196.891,197.469,196.891,197.361,196.889L197.361,196.889z
			 M229.608,185.149c0,4.898-3.009,9.1-7.274,10.862v-21.724C226.6,176.052,229.608,180.255,229.608,185.149L229.608,185.149z
			 M255.544,199.647c-13.438,13.439-35.045,13.855-48.991,1.252h11.311c8.684,0,15.747-7.063,15.747-15.75
			c0-8.683-7.063-15.749-15.747-15.749H207.18v-22.189c0-1.104-0.896-2.001-2.002-2.001c-1.104,0-2,0.896-2,2.001v23.363
			l-9.829,9.828c-3.839-3.217-9.013-4.144-13.665-2.576v-34.551c2.72,0.782,5.583,1.209,8.546,1.209
			c8.285,0,15.813-3.276,21.369-8.597l35.447,35.445l-4.846,4.848c-0.784,0.782-0.784,2.05,0,2.829c0.779,0.783,2.047,0.783,2.828,0
			l22.219-22.22c0.631,1.053,1.387,2.033,2.277,2.919c2.423,2.424,5.475,3.84,8.637,4.255v15.142L255.544,199.647z M285.902,184.845
			l16.614-16.611l3.521,3.523c0.782,0.78,2.05,0.78,2.828,0c2.727-2.724,7.084-2.837,9.952-0.348l-23.187,23.184L285.902,184.845z
			 M300.72,199.68l-2.257-2.256l23.202-23.204l2.257,2.257L300.72,199.68z M300.72,199.68"/>
	</g>
</g>
<g id="Camada_2">
	<g>
		<g>
			<defs>
				<rect id="SVGID_3_" x="49.096" y="26.633" width="65.319" height="49.081"/>
			</defs>
			<clipPath id="SVGID_2_">
				<use xlink:href="#SVGID_3_"  overflow="visible"/>
			</clipPath>
			<path clip-path="url(#SVGID_2_)" d="M106.509,45.912c6.017-4.773,8.359-8.847,6.961-12.106c-0.367-0.854-0.956-1.562-1.76-2.12
				c0.001-0.023,0.002-0.047,0.002-0.07c0-2.742-2.223-4.967-4.966-4.967c-2.274,0-4.189,1.53-4.779,3.615
				c-2.546,0.238-5.456,0.757-8.609,1.539c-3.353-2.533-7.499-3.984-11.888-3.984c-2.674,0-5.285,0.539-7.761,1.602
				c-4.837,2.074-8.577,5.909-10.53,10.796c-0.661,1.655-1.09,3.363-1.289,5.087c-4.063,2.588-7.337,5.186-9.511,7.554
				c-2.938,3.199-3.912,6.024-2.895,8.396c1.055,2.459,3.911,3.695,8.513,3.695c1.501,0,3.187-0.131,5.057-0.396
				c2.042-0.286,4.238-0.724,6.544-1.296c3.352,2.533,7.497,3.982,11.886,3.982c2.673,0,5.285-0.539,7.76-1.6
				c6.72-2.883,11.018-9.083,11.806-15.873C103.059,48.487,104.893,47.194,106.509,45.912L106.509,45.912z M103.788,42.481
				c-0.875,0.694-1.82,1.393-2.826,2.09c-0.246-1.621-0.698-3.236-1.374-4.812c-0.671-1.563-1.528-3.007-2.538-4.311
				c2.241-0.466,4.137-0.732,5.72-0.859c0.906,1.209,2.35,1.991,3.977,1.991c1.006,0,1.941-0.3,2.723-0.814
				C109.417,36.528,108.471,38.767,103.788,42.481L103.788,42.481z M67.246,41.841c1.519-3.801,4.427-6.783,8.19-8.397
				c1.927-0.826,3.957-1.246,6.034-1.246c6.142,0,11.673,3.646,14.093,9.289c0.806,1.879,1.205,3.831,1.238,5.76
				c-3.763,2.252-8.08,4.441-12.69,6.419c-4.612,1.979-9.175,3.597-13.4,4.771c-1.384-1.366-2.52-3.007-3.317-4.866
				C65.779,49.809,65.727,45.643,67.246,41.841L67.246,41.841z M62.445,60.217c-6.763,0.95-8.769-0.303-8.936-0.691
				c-0.312-0.728,1.291-4.059,8.479-9.035c0.251,1.635,0.71,3.247,1.379,4.807c0.67,1.564,1.528,3.008,2.539,4.313
				C64.708,59.855,63.552,60.062,62.445,60.217L62.445,60.217z M87.52,61.613c-1.927,0.827-3.957,1.246-6.034,1.246
				c-2.137,0-4.2-0.443-6.085-1.257c3.382-1.08,6.901-2.396,10.437-3.913c3.53-1.515,6.903-3.155,10.012-4.858
				C94.442,56.642,91.538,59.891,87.52,61.613L87.52,61.613z M87.52,61.613"/>
		</g>
		<path d="M106.746,60.203c-4.225,0-7.661,3.437-7.661,7.66s3.437,7.661,7.661,7.661c4.224,0,7.66-3.438,7.66-7.661
			S110.97,60.203,106.746,60.203L106.746,60.203z M106.746,60.203"/>
		<path d="M63.008,31.583c0,1.781-1.443,3.225-3.224,3.225s-3.225-1.443-3.225-3.225c0-1.78,1.444-3.224,3.225-3.224
			S63.008,29.803,63.008,31.583L63.008,31.583z M63.008,31.583"/>
	</g>
	<g>
		<path fill="none" d="M411.726,59.526c-1.148,1.704-2.682,2.973-4.32,3.895c1.882,1.131,3.268,2.648,4.248,4.274
			c1.099-1.728,2.58-3.021,4.152-3.966C413.987,62.632,412.668,61.138,411.726,59.526z"/>
		<path fill="none" d="M165.845,40.116c-1.146,1.704-2.679,2.973-4.317,3.895c1.882,1.131,3.268,2.648,4.248,4.274
			c1.099-1.728,2.577-3.021,4.152-3.966C168.106,43.222,166.787,41.725,165.845,40.116z"/>
		<path fill="none" d="M350.166,129.384c0.404,2.035,0.213,4.023-0.291,5.848c0.947-0.237,1.911-0.354,2.91-0.354
			c1.109,0,2.159,0.149,3.126,0.396c-0.45-2.013-0.324-3.983,0.126-5.781C354.09,129.958,351.954,129.87,350.166,129.384z"/>
		<path d="M172.843,204.67c-3.495,0-3.915-3.323-3.954-3.976c-0.065-1.094-1.083-1.938-2.082-1.91
			c-1.098,0.029-1.968,1.147-1.968,2.243c0,3.07-1.923,3.973-3.543,3.973c-0.009,0-0.015,0-0.023,0c-1.06,0-2.089,0.826-2.112,1.957
			c-0.024,1.102,0.84,2.043,1.938,2.043c0.049,0,0.15,0,0.214,0c2.88,0,3.688,1.595,3.688,3.218c0,0.057,0,0.147,0,0.156V212h-0.152
			c0.078,1,0.948,2,2.011,2h0.006c1.106,0,2.001-0.762,2.024-1.865c0.069-3.309,3.321-3.464,3.954-3.476
			c1.122,0,2.025-0.878,2.025-1.995C174.868,205.546,173.959,204.67,172.843,204.67z"/>
		<path d="M177.227,42.105c-8.937,0-9.227-8.334-9.227-9.282V32.82c0-1.112-0.884-2.013-2-2.013c-1.101,0-2,0.882-2,1.977
			c0,0,0,0.003,0,0.006v0.004c0,0.002,0,0.006,0,0.006c0,0.009,0,0.012,0,0.021c0,0,0,0.003,0,0.006c0,8.655-9.101,9.21-10.13,9.249
			c-1.107,0.039-2.01,0.954-1.996,2.061c0.024,1.104,0.901,1.99,2.008,1.99c9.345,0.002,9.945,8.171,9.987,9.126
			c0.049,1.086,0.934,1.748,2.017,1.748c0.015,0,0.024,0,0.039,0c1.107,0,1.986-0.723,1.986-1.824c0-8.404,8.424-9.063,9.39-9.121
			c1.092-0.065,1.96-0.941,1.921-2.036C179.189,42.927,178.316,42.105,177.227,42.105z M165.775,48.285
			c-0.98-1.626-2.366-3.144-4.248-4.274c1.639-0.922,3.172-2.19,4.317-3.895c0.942,1.608,2.262,3.105,4.083,4.203
			C168.353,45.265,166.874,46.558,165.775,48.285z"/>
		<path d="M124,139.183l0.011-0.002c-2.451-2.476-0.392-5.115,0.034-5.611c0.729-0.818,0.681-2.069-0.111-2.819
			c-0.808-0.744-2.047-0.735-2.821,0.036c-0.879,0.879-1.754,1.326-2.609,1.326c-1.305,0-2.356-0.973-2.561-1.164
			c-0.006-0.006-0.016-0.016-0.016-0.018c-0.023-0.024-0.047-0.043-0.062-0.066c-0.783-0.777-2.059-0.793-2.832-0.024
			c-0.798,0.759-0.84,2.013-0.096,2.826c0.015,0.009,0.038,0.033,0.063,0.065c0.03,0.027,0.063,0.061,0.087,0.084
			c2.001,2.067,1.098,3.877-0.033,5.035c-0.042,0.041-0.11,0.11-0.12,0.119l0.01,0.006c-0.676,0.795-0.634,1.978,0.104,2.73
			c0.777,0.783,2.034,0.807,2.841,0.039c1.947-1.885,4.645-0.294,5.292,0.314c0.396,0.394,0.912,0.586,1.426,0.586
			c0.524,0,1.017-0.199,1.414-0.595c0.792-0.792,0.98-2.073-0.02-2.864C124,139.187,124,139.187,124,139.183z"/>
		<path d="M405.365,139.533c-0.798-0.792-2.078-0.78-2.861,0.003c-0.808,0.807-1.647,1.197-2.557,1.197
			c-1.632,0-3.048-1.206-3.048-1.206c-0.821-0.735-2.072-0.69-2.822,0.114c-0.754,0.798-0.738,2.049,0.038,2.822
			c2.28,2.277,1.087,4.194,0.159,5.148c-0.032,0.03-0.09,0.084-0.096,0.087l0.006,0.003c-0.705,0.795-0.672,2.008,0.087,2.766
			c0.78,0.793,2.056,0.799,2.838,0.027c2.154-2.085,4.662-0.351,5.05,0.024c0.038,0.045,0.11,0.116,0.116,0.123l0.01-0.007
			c0.126,0.105,0.261,0.192,0.401,0.265c0.327,0.213,0.714,0.336,1.125,0.336c1.116,0,2.025-0.906,2.025-2.024
			c0-0.732-0.387-1.371-0.973-1.729c-1.968-2.318,0.072-4.645,0.498-5.091C406.154,141.601,406.154,140.319,405.365,139.533z"/>
		<path d="M423.164,61.515c-8.936,0-9.164-8.334-9.164-9.281V52.23c0-1.11-0.887-2.013-2-2.013c-1.102,0-2,0.881-2,1.977
			c0,0.003,0,0.003,0,0.003v0.006v0.007c0,0.008,0,0.012,0,0.021v0.006c0,8.655-9.163,9.213-10.192,9.249
			c-1.107,0.039-2.042,0.954-2.026,2.061c0.023,1.104,0.885,1.989,1.992,1.989c9.351,0.003,9.944,8.467,9.982,9.422
			c0.049,1.086,0.923,2.043,2.009,2.043c0.015,0,0.024,0,0.039,0c1.107,0,1.986-1.018,1.986-2.119c0-8.404,8.424-9.209,9.387-9.269
			c1.092-0.066,1.991-1.015,1.952-2.109C425.099,62.411,424.256,61.515,423.164,61.515z M411.653,67.695
			c-0.98-1.626-2.366-3.144-4.248-4.274c1.639-0.922,3.172-2.19,4.32-3.895c0.942,1.611,2.262,3.105,4.08,4.203
			C414.233,64.675,412.752,65.968,411.653,67.695z"/>
		<path d="M362.412,122.767c-0.792-0.756-2.04-0.732-2.814,0.039c-1.962,1.962-4.303,2.957-6.502,2.957
			c-3.797,0-6.096-2.934-7.096-2.961c0-0.002,0-0.002,0-0.002c0-0.793-1.836-0.774-2.617,0.009
			c-0.793,0.792-0.674,2.073,0.118,2.864l0.068,0.013c6.104,6.114,0.147,12.888-0.555,13.641c-0.759,0.808-0.715,2.073,0.077,2.841
			c0.396,0.381,0.91,0.573,1.414,0.573c0.522,0,1.042-0.198,1.438-0.594c2.137-2.136,4.439-3.216,6.846-3.216
			c3.813,0,6.787,2.699,6.819,2.729c0.799,0.747,2.065,0.711,2.833-0.084c0.766-0.795,0.76-2.049-0.023-2.832
			c-5.925-5.94-0.504-12.435,0.126-13.157C363.267,124.765,363.213,123.513,362.412,122.767z M355.911,135.273
			c-0.967-0.246-2.017-0.396-3.126-0.396c-0.999,0-1.963,0.116-2.91,0.354c0.504-1.824,0.695-3.813,0.291-5.848
			c1.788,0.486,3.924,0.574,5.871,0.108C355.587,131.29,355.461,133.261,355.911,135.273z"/>
		<path d="M343.119,74.886c0-1.118-0.909-2.024-2.025-2.024c-3.495,0-3.915-3.324-3.954-3.978c-0.065-1.092-0.879-1.846-2.082-1.912
			c-1.098,0.031-1.968,1.052-1.968,2.147c0,3.074-1.923,3.881-3.543,3.881c-0.009,0-0.016,0-0.024,0
			c-1.131,0-2.088,0.73-2.111,1.861c-0.024,1.102,0.84,1.958,1.938,2.005c0.048-0.002,0.105-0.023,0.168-0.03
			c2.871,0.052,3.483,1.941,3.483,3.552c0,0.063,0,0.162,0,0.175V81h0.099c0.087,1,0.948,1,2.01,1h0.006
			c1.099,0,2.002-0.67,2.025-1.773c0.069-3.293,3.321-3.408,3.954-3.42C342.216,76.807,343.119,76.003,343.119,74.886z"/>
	</g>
</g>
</svg>
